<svg xmlns="http://www.w3.org/2000/svg" xmlns:xlink="http://www.w3.org/1999/xlink"
    viewBox="0 0 512 512" width="512" height="512" preserveAspectRatio="xMidYMid meet"
    style="width: 100%; height: 100%; transform: translate3d(0px, 0px, 0px); content-visibility: visible;">
    <defs>
        <clipPath id="__lottie_element_2">
            <rect width="512" height="512" x="0" y="0"></rect>
        </clipPath>
    </defs>
    <g clip-path="url(#__lottie_element_2)">
        <g
            transform="matrix(1.385195255279541,-0.45007723569869995,0.3662070631980896,1.1270694732666016,-51.81907653808594,30.137496948242188)"
            opacity="1" style="display: block;">
            <path fill-rule="evenodd" fill="rgb(41,109,19)" fill-opacity="1"
                d=" M119.41365051269531,215.02850341796875 C119.41365051269531,215.02850341796875 124.88321685791016,198.12216186523438 116.73538970947266,185.900390625 C121.91526794433594,120.64945220947266 55.24932098388672,101.46780395507812 22.657943725585938,98.41236114501953 C52.70313262939453,121.83744812011719 30.80576515197754,196.18658447265625 97.00707244873047,198.7327880859375 C95.98860931396484,199.24203491210938 84.27603912353516,167.1598663330078 61.86946487426758,133.5499725341797 C92.42391204833984,155.4473419189453 112.68987274169922,220.60145568847656 111.27464294433594,231.41787719726562 C120.95018005371094,228.3624267578125 119.41365051269531,215.02850341796875 119.41365051269531,215.02850341796875z"></path>
        </g>
        <g transform="matrix(4.040576934814453,0,0,4.040576934814453,151.921875,89.04167175292969)"
            opacity="1" style="display: block;">
            <g opacity="1" transform="matrix(1,0,0,1,0,0)">
                <path fill="rgb(41,110,19)" fill-opacity="1"
                    d=" M23.760000228881836,55 C23.760000228881836,55 10.449999809265137,38 10.449999809265137,38 C10.449999809265137,38 10.449999809265137,55 10.449999809265137,55 C10.449999809265137,55 2.75,55 2.75,55 C2.75,55 2.75,16.5 2.75,16.5 C2.75,16.5 10.449999809265137,16.5 10.449999809265137,16.5 C10.449999809265137,16.5 10.449999809265137,32.38999938964844 10.449999809265137,32.38999938964844 C10.449999809265137,32.38999938964844 22.440000534057617,16.5 22.440000534057617,16.5 C22.440000534057617,16.5 32.5099983215332,16.5 32.5099983215332,16.5 C32.5099983215332,16.5 17.600000381469727,34.540000915527344 17.600000381469727,34.540000915527344 C17.600000381469727,34.540000915527344 33.599998474121094,55 33.599998474121094,55 C33.599998474121094,55 23.760000228881836,55 23.760000228881836,55 C23.760000228881836,55 23.760000228881836,55 23.760000228881836,55z"></path>
            </g>
        </g>
        <g
            transform="matrix(4.040576934814453,0,0,4.040576934814453,251.58612060546875,89.04167175292969)"
            opacity="1" style="display: block;">
            <g opacity="1" transform="matrix(1,0,0,1,0,0)">
                <path fill="rgb(199,171,74)" fill-opacity="1"
                    d=" M14.40999984741211,55 C14.40999984741211,55 -0.9399999976158142,16.5 -0.9399999976158142,16.5 C-0.9399999976158142,16.5 7.96999979019165,16.5 7.96999979019165,16.5 C7.96999979019165,16.5 16.770000457763672,40.97999954223633 16.770000457763672,40.97999954223633 C17.399999618530273,42.77000045776367 17.860000610351562,44.380001068115234 18.149999618530273,45.810001373291016 C18.149999618530273,45.810001373291016 18.149999618530273,45.810001373291016 18.149999618530273,45.810001373291016 C18.440000534057617,44.310001373291016 18.899999618530273,42.70000076293945 19.520000457763672,40.97999954223633 C19.520000457763672,40.97999954223633 19.520000457763672,40.97999954223633 19.520000457763672,40.97999954223633 C19.520000457763672,40.97999954223633 28.31999969482422,16.5 28.31999969482422,16.5 C28.31999969482422,16.5 37.06999969482422,16.5 37.06999969482422,16.5 C37.06999969482422,16.5 21.84000015258789,55 21.84000015258789,55 C21.84000015258789,55 14.40999984741211,55 14.40999984741211,55 C14.40999984741211,55 14.40999984741211,55 14.40999984741211,55z"></path>
            </g>
        </g>
    </g>
</svg>